<svg width="210" height="51" viewBox="0 0 210 51" fill="none" xmlns="http://www.w3.org/2000/svg">
<path d="M50.26 26.7292C50.26 32.5817 45.4739 37.326 39.5698 37.326C33.6657 37.326 28.8796 32.5817 28.8796 26.7292C28.8796 20.8768 33.6657 16.1324 39.5698 16.1324C45.4739 16.1324 50.26 20.8768 50.26 26.7292Z" fill="url(#paint0_linear_5_158)"/>
<path d="M18.7722 23.1056C3.37513 -0.144063 13.5069 -5.2843 30.1007 5.15434C16.8576 -1.33027 7.44379 2.54468 18.7722 23.1056Z" fill="url(#paint1_linear_5_158)"/>
<path d="M31.8289 16.506C15.9532 16.506 37.573 44.026 54.7252 40.6256C39.8865 49.9571 8.45405 14.8453 31.8289 16.506Z" fill="url(#paint2_linear_5_158)"/>
<path d="M39.5698 7.11199C54.4883 8.06096 60.7109 19.6858 60.4716 30.678C64.4605 17.946 53.7703 4.58141 39.5698 7.11199Z" fill="url(#paint3_linear_5_158)"/>
<path d="M35.512 8.0802C10.1426 7.21031 5.1964 47.2251 36.1502 47.9368C6.87173 43.4292 14.3708 8.95009 35.512 8.0802Z" fill="url(#paint4_linear_5_158)"/>
<path d="M4.40305 38.275C2.82567 33.6883 8.5515 27.6782 12.2213 24.1987C7.83353 27.2828 -1.92349 35.3437 0.334352 41.7546C4.01072 52.1932 35.7129 38.764 45.7279 33.0557C55.3013 27.5991 65.5128 20.3237 70.9377 9.806C58.8115 26.492 39.1064 35.6654 22.1935 40.252C12.8473 42.7867 5.59969 41.7546 4.40305 38.275Z" fill="url(#paint5_linear_5_158)"/>
<path d="M55.196 27.9986C71.5761 50.5785 61.6739 56.141 44.6475 46.4109C58.1567 52.3317 67.3959 48.0636 55.196 27.9986Z" fill="url(#paint6_linear_5_158)"/>
<path d="M35.4214 13.5869C39.1177 13.1388 47.2444 13.666 50.1803 19.3598C46.67 11.2145 39.1709 12.5588 35.4214 13.5869Z" fill="url(#paint7_linear_5_158)"/>
<path d="M46.9094 5.84341C54.8871 2.28478 72.1192 -0.641201 67.0932 10.9836C67.8112 4.6572 59.1951 2.12662 46.9094 5.84341Z" fill="url(#paint8_linear_5_158)"/>
<path d="M90.4138 10.6998H95.7723V23.2339C95.7723 24.7242 95.4125 26.0139 94.6929 27.103C93.9797 28.1857 92.9838 29.0232 91.7052 29.6155C90.4266 30.2015 88.9424 30.4945 87.2526 30.4945C85.55 30.4945 84.0594 30.2015 82.7808 29.6155C81.5022 29.0232 80.5063 28.1857 79.7931 27.103C79.0864 26.0139 78.733 24.7242 78.733 23.2339V10.6998H84.0915V22.7753C84.0915 23.3804 84.2264 23.9217 84.4963 24.3994C84.7661 24.8707 85.1388 25.2401 85.6142 25.5076C86.0961 25.7751 86.6423 25.9088 87.2526 25.9088C87.8694 25.9088 88.4156 25.7751 88.891 25.5076C89.3665 25.2401 89.7391 24.8707 90.009 24.3994C90.2789 23.9217 90.4138 23.3804 90.4138 22.7753V10.6998Z" fill="url(#paint9_linear_5_158)"/>
<path d="M104.063 10.6998L107.301 16.3936H107.456L110.732 10.6998H116.708L110.809 20.4825L116.939 30.2652H110.809L107.456 24.4567H107.301L103.947 30.2652H97.8564L103.909 20.4825L98.0492 10.6998H104.063Z" fill="url(#paint10_linear_5_158)"/>
<path d="M129.822 10.6998L133.87 24.4949H134.024L138.072 10.6998H144.124L137.609 30.2652H130.285L123.77 10.6998H129.822Z" fill="url(#paint11_linear_5_158)"/>
<path d="M146.102 30.2652V15.5911H151.422V30.2652H146.102ZM148.762 14.0626C148.043 14.0626 147.426 13.827 146.912 13.3557C146.398 12.8844 146.141 12.3175 146.141 11.6551C146.141 10.9928 146.398 10.4259 146.912 9.95464C147.426 9.48334 148.043 9.24769 148.762 9.24769C149.488 9.24769 150.105 9.48334 150.613 9.95464C151.127 10.4259 151.384 10.9928 151.384 11.6551C151.384 12.3175 151.127 12.8844 150.613 13.3557C150.105 13.827 149.488 14.0626 148.762 14.0626Z" fill="url(#paint12_linear_5_158)"/>
<path d="M167.664 20.3678H162.768C162.743 20.0685 162.637 19.8106 162.45 19.594C162.264 19.3775 162.023 19.2119 161.727 19.0972C161.438 18.9762 161.117 18.9157 160.764 18.9157C160.307 18.9157 159.916 18.9985 159.588 19.1641C159.26 19.3297 159.1 19.5654 159.106 19.8711C159.1 20.0876 159.193 20.2882 159.385 20.4729C159.585 20.6576 159.967 20.8009 160.532 20.9028L163.539 21.4378C165.056 21.7117 166.183 22.1734 166.922 22.8231C167.667 23.4663 168.043 24.3293 168.05 25.412C168.043 26.4565 167.728 27.3641 167.105 28.1348C166.488 28.899 165.643 29.4913 164.57 29.9117C163.504 30.3257 162.286 30.5327 160.918 30.5327C158.656 30.5327 156.886 30.0741 155.608 29.157C154.335 28.2398 153.625 27.0298 153.478 25.5267H158.759C158.83 25.9916 159.061 26.3515 159.453 26.6062C159.851 26.8546 160.352 26.9788 160.956 26.9788C161.445 26.9788 161.846 26.896 162.161 26.7304C162.482 26.5648 162.646 26.3292 162.653 26.0235C162.646 25.7432 162.505 25.5203 162.229 25.3547C161.959 25.1891 161.535 25.0554 160.956 24.9535L158.335 24.4949C156.825 24.2338 155.694 23.737 154.943 23.0046C154.191 22.2722 153.818 21.3296 153.825 20.1768C153.818 19.1578 154.088 18.2948 154.634 17.5878C155.187 16.8745 155.974 16.3331 156.995 15.9637C158.023 15.588 159.241 15.4001 160.648 15.4001C162.788 15.4001 164.474 15.8395 165.708 16.7185C166.948 17.5974 167.6 18.8138 167.664 20.3678Z" fill="url(#paint13_linear_5_158)"/>
<path d="M170.088 30.2652V15.5911H175.408V30.2652H170.088ZM172.748 14.0626C172.028 14.0626 171.412 13.827 170.898 13.3557C170.384 12.8844 170.127 12.3175 170.127 11.6551C170.127 10.9928 170.384 10.4259 170.898 9.95464C171.412 9.48334 172.028 9.24769 172.748 9.24769C173.474 9.24769 174.091 9.48334 174.598 9.95464C175.112 10.4259 175.369 10.9928 175.369 11.6551C175.369 12.3175 175.112 12.8844 174.598 13.3557C174.091 13.827 173.474 14.0626 172.748 14.0626Z" fill="url(#paint14_linear_5_158)"/>
<path d="M185.25 30.5327C183.644 30.5327 182.269 30.2174 181.126 29.5869C179.982 28.95 179.105 28.0647 178.494 26.931C177.884 25.791 177.579 24.4694 177.579 22.9664C177.579 21.4633 177.884 20.1449 178.494 19.0113C179.105 17.8712 179.982 16.9859 181.126 16.3554C182.269 15.7185 183.644 15.4001 185.25 15.4001C186.857 15.4001 188.232 15.7185 189.375 16.3554C190.519 16.9859 191.396 17.8712 192.006 19.0113C192.617 20.1449 192.922 21.4633 192.922 22.9664C192.922 24.4694 192.617 25.791 192.006 26.931C191.396 28.0647 190.519 28.95 189.375 29.5869C188.232 30.2174 186.857 30.5327 185.25 30.5327ZM185.289 26.6349C185.739 26.6349 186.127 26.4852 186.455 26.1859C186.783 25.8865 187.037 25.4598 187.217 24.9057C187.396 24.3516 187.486 23.6924 187.486 22.9282C187.486 22.1575 187.396 21.4983 187.217 20.9506C187.037 20.3965 186.783 19.9698 186.455 19.6705C186.127 19.3711 185.739 19.2214 185.289 19.2214C184.814 19.2214 184.406 19.3711 184.065 19.6705C183.724 19.9698 183.464 20.3965 183.284 20.9506C183.104 21.4983 183.014 22.1575 183.014 22.9282C183.014 23.6924 183.104 24.3516 183.284 24.9057C183.464 25.4598 183.724 25.8865 184.065 26.1859C184.406 26.4852 184.814 26.6349 185.289 26.6349Z" fill="url(#paint15_linear_5_158)"/>
<path d="M200.401 22.011V30.2652H195.081V15.5911H200.131V18.3807H200.285C200.606 17.4509 201.172 16.7216 201.981 16.193C202.797 15.6644 203.748 15.4001 204.834 15.4001C205.881 15.4001 206.791 15.6389 207.562 16.1166C208.339 16.5879 208.94 17.2375 209.364 18.0655C209.794 18.8934 210.006 19.8392 210 20.9028V30.2652H204.68V22.011C204.686 21.285 204.5 20.715 204.121 20.301C203.748 19.887 203.228 19.68 202.56 19.68C202.123 19.68 201.74 19.7755 201.413 19.9666C201.091 20.1513 200.844 20.4188 200.671 20.7691C200.497 21.113 200.407 21.527 200.401 22.011Z" fill="url(#paint16_linear_5_158)"/>
<path d="M82.7904 40.914H82.0933C82.0521 40.7153 81.9799 40.5406 81.8769 40.3902C81.7757 40.2397 81.652 40.1134 81.5058 40.0112C81.3615 39.9072 81.2013 39.8292 81.0251 39.7772C80.849 39.7252 80.6653 39.6992 80.4742 39.6992C80.1256 39.6992 79.8098 39.7865 79.5269 39.9611C79.2458 40.1357 79.0218 40.393 78.8551 40.7329C78.6901 41.0729 78.6077 41.4899 78.6077 41.984C78.6077 42.4781 78.6901 42.8952 78.8551 43.2351C79.0218 43.575 79.2458 43.8323 79.5269 44.0069C79.8098 44.1816 80.1256 44.2689 80.4742 44.2689C80.6653 44.2689 80.849 44.2429 81.0251 44.1908C81.2013 44.1388 81.3615 44.0617 81.5058 43.9596C81.652 43.8555 81.7757 43.7283 81.8769 43.5778C81.9799 43.4255 82.0521 43.2509 82.0933 43.054H82.7904C82.7379 43.3456 82.6424 43.6066 82.5037 43.837C82.365 44.0673 82.1926 44.2633 81.9865 44.4249C81.7803 44.5847 81.5489 44.7063 81.2922 44.7899C81.0373 44.8735 80.7646 44.9153 80.4742 44.9153C79.9832 44.9153 79.5466 44.7964 79.1643 44.5586C78.782 44.3209 78.4812 43.9828 78.2619 43.5444C78.0427 43.106 77.9331 42.5859 77.9331 41.984C77.9331 41.3821 78.0427 40.862 78.2619 40.4236C78.4812 39.9852 78.782 39.6471 79.1643 39.4094C79.5466 39.1716 79.9832 39.0527 80.4742 39.0527C80.7646 39.0527 81.0373 39.0945 81.2922 39.1781C81.5489 39.2617 81.7803 39.3843 81.9865 39.5459C82.1926 39.7057 82.365 39.9007 82.5037 40.131C82.6424 40.3595 82.7379 40.6205 82.7904 40.914Z" fill="white"/>
<path d="M83.827 44.8373V40.5574H84.4679V41.2038H84.5128C84.5916 40.992 84.734 40.8202 84.9401 40.6883C85.1463 40.5564 85.3786 40.4905 85.6372 40.4905C85.686 40.4905 85.7469 40.4914 85.8199 40.4933C85.893 40.4951 85.9483 40.4979 85.9858 40.5016V41.1704C85.9633 41.1648 85.9118 41.1564 85.8312 41.1453C85.7525 41.1323 85.6691 41.1258 85.581 41.1258C85.3711 41.1258 85.1837 41.1694 85.0188 41.2568C84.8558 41.3422 84.7265 41.4611 84.6309 41.6134C84.5372 41.7639 84.4904 41.9357 84.4904 42.1289V44.8373H83.827Z" fill="white"/>
<path d="M86.7722 44.8373V40.5574H87.4356V44.8373H86.7722ZM87.1095 39.844C86.9802 39.844 86.8687 39.8004 86.775 39.7131C86.6832 39.6258 86.6372 39.5208 86.6372 39.3982C86.6372 39.2756 86.6832 39.1707 86.775 39.0834C86.8687 38.996 86.9802 38.9524 87.1095 38.9524C87.2388 38.9524 87.3493 38.996 87.4412 39.0834C87.5349 39.1707 87.5817 39.2756 87.5817 39.3982C87.5817 39.5208 87.5349 39.6258 87.4412 39.7131C87.3493 39.8004 87.2388 39.844 87.1095 39.844Z" fill="white"/>
<path d="M89.9212 44.9376C89.6476 44.9376 89.3993 44.8865 89.1763 44.7843C88.9532 44.6803 88.7762 44.5308 88.645 44.3357C88.5138 44.1388 88.4482 43.9011 88.4482 43.6224C88.4482 43.3772 88.4969 43.1784 88.5944 43.0261C88.6918 42.8719 88.8221 42.7512 88.9851 42.6639C89.1481 42.5766 89.328 42.5116 89.5248 42.4688C89.7234 42.4243 89.923 42.389 90.1235 42.363C90.3859 42.3295 90.5986 42.3044 90.7616 42.2877C90.9266 42.2691 91.0465 42.2385 91.1214 42.1958C91.1983 42.153 91.2367 42.0787 91.2367 41.9729V41.9506C91.2367 41.6756 91.1608 41.462 91.009 41.3097C90.8591 41.1574 90.6314 41.0812 90.3259 41.0812C90.0092 41.0812 89.7609 41.1499 89.581 41.2874C89.4011 41.4249 89.2746 41.5716 89.2015 41.7277L88.5719 41.5047C88.6843 41.2447 88.8343 41.0422 89.0217 40.8973C89.2109 40.7506 89.4171 40.6484 89.6401 40.5908C89.8649 40.5314 90.0861 40.5016 90.3035 40.5016C90.4421 40.5016 90.6014 40.5184 90.7813 40.5518C90.9631 40.5834 91.1383 40.6493 91.307 40.7496C91.4775 40.8499 91.619 41.0013 91.7314 41.2038C91.8439 41.4063 91.9001 41.6775 91.9001 42.0174V44.8373H91.2367V44.2577H91.203C91.158 44.3506 91.083 44.45 90.9781 44.5559C90.8731 44.6617 90.7335 44.7518 90.5592 44.8261C90.385 44.9004 90.1723 44.9376 89.9212 44.9376ZM90.0224 44.3469C90.2847 44.3469 90.5058 44.2958 90.6857 44.1936C90.8675 44.0915 91.0043 43.9596 91.0962 43.798C91.1898 43.6363 91.2367 43.4664 91.2367 43.288V42.6862C91.2086 42.7196 91.1467 42.7503 91.0512 42.7781C90.9575 42.8041 90.8488 42.8274 90.7251 42.8478C90.6033 42.8664 90.4843 42.8831 90.3681 42.8979C90.2538 42.9109 90.161 42.9221 90.0898 42.9314C89.9174 42.9537 89.7562 42.9899 89.6063 43.0401C89.4583 43.0884 89.3383 43.1617 89.2465 43.2602C89.1566 43.3568 89.1116 43.4887 89.1116 43.6558C89.1116 43.8843 89.1969 44.0571 89.3674 44.1741C89.5398 44.2893 89.7581 44.3469 90.0224 44.3469Z" fill="white"/>
<path d="M93.7743 42.2626V44.8373H93.1109V40.5574H93.7518V41.2261H93.808C93.9092 41.0088 94.0629 40.8342 94.269 40.7023C94.4752 40.5685 94.7413 40.5016 95.0674 40.5016C95.3597 40.5016 95.6155 40.5611 95.8347 40.68C96.054 40.797 96.2245 40.9753 96.3463 41.215C96.4681 41.4527 96.5291 41.7537 96.5291 42.1178V44.8373H95.8657V42.1623C95.8657 41.8261 95.7776 41.5642 95.6014 41.3766C95.4253 41.1871 95.1835 41.0924 94.8762 41.0924C94.6645 41.0924 94.4752 41.1379 94.3084 41.2289C94.1435 41.3199 94.0132 41.4527 93.9177 41.6273C93.8221 41.802 93.7743 42.0137 93.7743 42.2626Z" fill="white"/>
<path d="M99.3717 44.9265C99.0118 44.9265 98.6942 44.8364 98.4187 44.6562C98.1433 44.4741 97.9277 44.2178 97.7722 43.8871C97.6167 43.5546 97.5389 43.1617 97.5389 42.7085C97.5389 42.2589 97.6167 41.8688 97.7722 41.5382C97.9277 41.2075 98.1442 40.9521 98.4215 40.7719C98.6989 40.5917 99.0193 40.5016 99.3829 40.5016C99.664 40.5016 99.8861 40.5481 100.049 40.641C100.214 40.732 100.34 40.836 100.426 40.953C100.514 41.0682 100.582 41.1629 100.631 41.2373H100.687V39.1307H101.351V44.8373H100.71V44.1797H100.631C100.582 44.2577 100.513 44.3562 100.423 44.4751C100.333 44.5921 100.205 44.697 100.038 44.7899C99.8711 44.8809 99.649 44.9265 99.3717 44.9265ZM99.4616 44.3357C99.7277 44.3357 99.9526 44.267 100.136 44.1295C100.32 43.9902 100.46 43.798 100.555 43.5528C100.651 43.3057 100.698 43.0205 100.698 42.6973C100.698 42.3778 100.652 42.0983 100.558 41.8586C100.464 41.6171 100.326 41.4295 100.142 41.2958C99.9582 41.1602 99.7315 41.0924 99.4616 41.0924C99.1805 41.0924 98.9463 41.1639 98.7589 41.3069C98.5733 41.4481 98.4337 41.6403 98.34 41.8837C98.2482 42.1252 98.2023 42.3964 98.2023 42.6973C98.2023 43.002 98.2491 43.2788 98.3428 43.5277C98.4384 43.7747 98.579 43.9716 98.7645 44.1184C98.9519 44.2633 99.1842 44.3357 99.4616 44.3357Z" fill="white"/>
<path d="M104.412 44.9265C104.022 44.9265 103.68 44.8345 103.386 44.6506C103.093 44.4667 102.865 44.2094 102.7 43.8788C102.537 43.5481 102.455 43.1617 102.455 42.7196C102.455 42.2738 102.537 41.8846 102.7 41.5521C102.865 41.2196 103.093 40.9614 103.386 40.7775C103.68 40.5936 104.022 40.5016 104.412 40.5016C104.802 40.5016 105.143 40.5936 105.435 40.7775C105.729 40.9614 105.958 41.2196 106.121 41.5521C106.286 41.8846 106.368 42.2738 106.368 42.7196C106.368 43.1617 106.286 43.5481 106.121 43.8788C105.958 44.2094 105.729 44.4667 105.435 44.6506C105.143 44.8345 104.802 44.9265 104.412 44.9265ZM104.412 44.3357C104.708 44.3357 104.951 44.2605 105.143 44.11C105.334 43.9596 105.475 43.7617 105.567 43.5165C105.659 43.2713 105.705 43.0057 105.705 42.7196C105.705 42.4335 105.659 42.167 105.567 41.9199C105.475 41.6729 105.334 41.4732 105.143 41.3208C104.951 41.1685 104.708 41.0924 104.412 41.0924C104.116 41.0924 103.872 41.1685 103.681 41.3208C103.49 41.4732 103.348 41.6729 103.256 41.9199C103.165 42.167 103.119 42.4335 103.119 42.7196C103.119 43.0057 103.165 43.2713 103.256 43.5165C103.348 43.7617 103.49 43.9596 103.681 44.11C103.872 44.2605 104.116 44.3357 104.412 44.3357Z" fill="white"/>
<path d="M109.697 44.8373V39.1307H113.171V39.7437H110.394V41.6719H112.992V42.2849H110.394V44.2243H113.216V44.8373H109.697Z" fill="white"/>
<path d="M114.833 40.5574L115.867 42.3072L116.902 40.5574H117.666L116.272 42.6973L117.666 44.8373H116.902L115.867 43.1766L114.833 44.8373H114.068L115.44 42.6973L114.068 40.5574H114.833Z" fill="white"/>
<path d="M118.613 46.4423V40.5574H119.254V41.2373H119.332C119.381 41.1629 119.449 41.0682 119.535 40.953C119.623 40.836 119.748 40.732 119.911 40.641C120.076 40.5481 120.299 40.5016 120.58 40.5016C120.944 40.5016 121.264 40.5917 121.542 40.7719C121.819 40.9521 122.036 41.2075 122.191 41.5382C122.347 41.8688 122.424 42.2589 122.424 42.7085C122.424 43.1617 122.347 43.5546 122.191 43.8871C122.036 44.2178 121.82 44.4741 121.545 44.6562C121.269 44.8364 120.952 44.9265 120.592 44.9265C120.314 44.9265 120.092 44.8809 119.925 44.7899C119.759 44.697 119.63 44.5921 119.54 44.4751C119.45 44.3562 119.381 44.2577 119.332 44.1797H119.276V46.4423H118.613ZM119.265 42.6973C119.265 43.0205 119.313 43.3057 119.408 43.5528C119.504 43.798 119.643 43.9902 119.827 44.1295C120.011 44.267 120.236 44.3357 120.502 44.3357C120.779 44.3357 121.011 44.2633 121.196 44.1184C121.383 43.9716 121.524 43.7747 121.618 43.5277C121.713 43.2788 121.761 43.002 121.761 42.6973C121.761 42.3964 121.714 42.1252 121.621 41.8837C121.529 41.6403 121.389 41.4481 121.202 41.3069C121.016 41.1639 120.783 41.0924 120.502 41.0924C120.232 41.0924 120.005 41.1602 119.821 41.2958C119.638 41.4295 119.499 41.6171 119.405 41.8586C119.312 42.0983 119.265 42.3778 119.265 42.6973Z" fill="white"/>
<path d="M125.247 44.9265C124.831 44.9265 124.472 44.8354 124.17 44.6534C123.87 44.4695 123.639 44.2131 123.476 43.8843C123.315 43.5537 123.234 43.1692 123.234 42.7308C123.234 42.2924 123.315 41.906 123.476 41.5716C123.639 41.2354 123.866 40.9735 124.156 40.7859C124.448 40.5964 124.789 40.5016 125.179 40.5016C125.404 40.5016 125.626 40.5388 125.845 40.6131C126.065 40.6874 126.264 40.8081 126.444 40.9753C126.624 41.1407 126.767 41.3599 126.874 41.6329C126.981 41.906 127.034 42.2422 127.034 42.6416V42.9202H123.706V42.3518H126.36C126.36 42.1103 126.311 41.8948 126.214 41.7054C126.118 41.5159 125.981 41.3664 125.803 41.2568C125.627 41.1472 125.419 41.0924 125.179 41.0924C124.915 41.0924 124.686 41.1574 124.493 41.2874C124.302 41.4156 124.155 41.5828 124.052 41.789C123.949 41.9952 123.897 42.2162 123.897 42.4521V42.8311C123.897 43.1543 123.954 43.4283 124.066 43.6531C124.18 43.876 124.339 44.0459 124.541 44.163C124.744 44.2781 124.979 44.3357 125.247 44.3357C125.421 44.3357 125.578 44.3116 125.719 44.2633C125.861 44.2131 125.984 44.1388 126.087 44.0404C126.19 43.9401 126.27 43.8156 126.326 43.667L126.967 43.8453C126.9 44.0608 126.786 44.2503 126.627 44.4138C126.468 44.5754 126.271 44.7017 126.037 44.7927C125.802 44.8819 125.539 44.9265 125.247 44.9265Z" fill="white"/>
<path d="M128.044 44.8373V40.5574H128.684V41.2038H128.729C128.808 40.992 128.951 40.8202 129.157 40.6883C129.363 40.5564 129.595 40.4905 129.854 40.4905C129.903 40.4905 129.963 40.4914 130.037 40.4933C130.11 40.4951 130.165 40.4979 130.202 40.5016V41.1704C130.18 41.1648 130.128 41.1564 130.048 41.1453C129.969 41.1323 129.886 41.1258 129.798 41.1258C129.588 41.1258 129.4 41.1694 129.235 41.2568C129.072 41.3422 128.943 41.4611 128.848 41.6134C128.754 41.7639 128.707 41.9357 128.707 42.1289V44.8373H128.044Z" fill="white"/>
<path d="M130.989 44.8373V40.5574H131.652V44.8373H130.989ZM131.326 39.844C131.197 39.844 131.085 39.8004 130.992 39.7131C130.9 39.6258 130.854 39.5208 130.854 39.3982C130.854 39.2756 130.9 39.1707 130.992 39.0834C131.085 38.996 131.197 38.9524 131.326 38.9524C131.455 38.9524 131.566 38.996 131.658 39.0834C131.751 39.1707 131.798 39.2756 131.798 39.3982C131.798 39.5208 131.751 39.6258 131.658 39.7131C131.566 39.8004 131.455 39.844 131.326 39.844Z" fill="white"/>
<path d="M134.677 44.9265C134.261 44.9265 133.903 44.8354 133.601 44.6534C133.301 44.4695 133.07 44.2131 132.907 43.8843C132.745 43.5537 132.665 43.1692 132.665 42.7308C132.665 42.2924 132.745 41.906 132.907 41.5716C133.07 41.2354 133.296 40.9735 133.587 40.7859C133.879 40.5964 134.22 40.5016 134.61 40.5016C134.835 40.5016 135.057 40.5388 135.276 40.6131C135.495 40.6874 135.695 40.8081 135.875 40.9753C136.055 41.1407 136.198 41.3599 136.305 41.6329C136.412 41.906 136.465 42.2422 136.465 42.6416V42.9202H133.137V42.3518H135.791C135.791 42.1103 135.742 41.8948 135.644 41.7054C135.549 41.5159 135.412 41.3664 135.234 41.2568C135.058 41.1472 134.85 41.0924 134.61 41.0924C134.346 41.0924 134.117 41.1574 133.924 41.2874C133.733 41.4156 133.586 41.5828 133.483 41.789C133.38 41.9952 133.328 42.2162 133.328 42.4521V42.8311C133.328 43.1543 133.384 43.4283 133.497 43.6531C133.611 43.876 133.77 44.0459 133.972 44.163C134.174 44.2781 134.41 44.3357 134.677 44.3357C134.852 44.3357 135.009 44.3116 135.15 44.2633C135.292 44.2131 135.415 44.1388 135.518 44.0404C135.621 43.9401 135.701 43.8156 135.757 43.667L136.398 43.8453C136.33 44.0608 136.217 44.2503 136.058 44.4138C135.898 44.5754 135.702 44.7017 135.467 44.7927C135.233 44.8819 134.97 44.9265 134.677 44.9265ZM135.161 40.0447L134.576 39.2645L133.992 40.0447H133.362V40.0001L134.273 38.8409H134.88L135.791 40.0001V40.0447H135.161Z" fill="white"/>
<path d="M138.138 42.2626V44.8373H137.474V40.5574H138.115V41.2261H138.172C138.273 41.0088 138.426 40.8342 138.633 40.7023C138.839 40.5685 139.105 40.5016 139.431 40.5016C139.723 40.5016 139.979 40.5611 140.198 40.68C140.418 40.797 140.588 40.9753 140.71 41.215C140.832 41.4527 140.893 41.7537 140.893 42.1178V44.8373H140.229V42.1623C140.229 41.8261 140.141 41.5642 139.965 41.3766C139.789 41.1871 139.547 41.0924 139.24 41.0924C139.028 41.0924 138.839 41.1379 138.672 41.2289C138.507 41.3199 138.377 41.4527 138.281 41.6273C138.186 41.802 138.138 42.0137 138.138 42.2626Z" fill="white"/>
<path d="M143.859 44.9265C143.454 44.9265 143.105 44.8317 142.813 44.6422C142.521 44.4528 142.296 44.1918 142.139 43.8593C141.981 43.5267 141.902 43.1469 141.902 42.7196C141.902 42.2849 141.983 41.9013 142.144 41.5688C142.307 41.2345 142.534 40.9735 142.824 40.7859C143.117 40.5964 143.458 40.5016 143.848 40.5016C144.151 40.5016 144.425 40.5574 144.668 40.6688C144.912 40.7803 145.112 40.9363 145.267 41.1369C145.423 41.3376 145.519 41.5716 145.557 41.8391H144.893C144.843 41.6441 144.73 41.4713 144.556 41.3208C144.384 41.1685 144.151 41.0924 143.859 41.0924C143.6 41.0924 143.373 41.1592 143.179 41.293C142.986 41.4249 142.835 41.6116 142.726 41.853C142.619 42.0927 142.566 42.3741 142.566 42.6973C142.566 43.028 142.618 43.3159 142.723 43.5611C142.83 43.8063 142.98 43.9967 143.173 44.1323C143.368 44.2679 143.596 44.3357 143.859 44.3357C144.031 44.3357 144.188 44.306 144.328 44.2466C144.469 44.1871 144.588 44.1017 144.685 43.9902C144.783 43.8788 144.852 43.745 144.893 43.589H145.557C145.519 43.8416 145.426 44.0692 145.278 44.2716C145.132 44.4723 144.938 44.632 144.697 44.7509C144.457 44.8679 144.177 44.9265 143.859 44.9265Z" fill="white"/>
<path d="M146.526 44.8373V40.5574H147.19V44.8373H146.526ZM146.864 39.844C146.734 39.844 146.623 39.8004 146.529 39.7131C146.437 39.6258 146.392 39.5208 146.392 39.3982C146.392 39.2756 146.437 39.1707 146.529 39.0834C146.623 38.996 146.734 38.9524 146.864 38.9524C146.993 38.9524 147.104 38.996 147.195 39.0834C147.289 39.1707 147.336 39.2756 147.336 39.3982C147.336 39.5208 147.289 39.6258 147.195 39.7131C147.104 39.8004 146.993 39.844 146.864 39.844Z" fill="white"/>
<path d="M149.675 44.9376C149.402 44.9376 149.154 44.8865 148.931 44.7843C148.708 44.6803 148.53 44.5308 148.399 44.3357C148.268 44.1388 148.202 43.9011 148.202 43.6224C148.202 43.3772 148.251 43.1784 148.349 43.0261C148.446 42.8719 148.576 42.7512 148.739 42.6639C148.902 42.5766 149.082 42.5116 149.279 42.4688C149.478 42.4243 149.677 42.389 149.878 42.363C150.14 42.3295 150.353 42.3044 150.516 42.2877C150.681 42.2691 150.801 42.2385 150.876 42.1958C150.953 42.153 150.991 42.0787 150.991 41.9729V41.9506C150.991 41.6756 150.915 41.462 150.763 41.3097C150.613 41.1574 150.386 41.0812 150.08 41.0812C149.764 41.0812 149.515 41.1499 149.335 41.2874C149.155 41.4249 149.029 41.5716 148.956 41.7277L148.326 41.5047C148.439 41.2447 148.589 41.0422 148.776 40.8973C148.965 40.7506 149.171 40.6484 149.394 40.5908C149.619 40.5314 149.84 40.5016 150.058 40.5016C150.196 40.5016 150.356 40.5184 150.536 40.5518C150.717 40.5834 150.893 40.6493 151.061 40.7496C151.232 40.8499 151.373 41.0013 151.486 41.2038C151.598 41.4063 151.654 41.6775 151.654 42.0174V44.8373H150.991V44.2577H150.957C150.912 44.3506 150.837 44.45 150.732 44.5559C150.627 44.6617 150.488 44.7518 150.314 44.8261C150.139 44.9004 149.927 44.9376 149.675 44.9376ZM149.777 44.3469C150.039 44.3469 150.26 44.2958 150.44 44.1936C150.622 44.0915 150.759 43.9596 150.85 43.798C150.944 43.6363 150.991 43.4664 150.991 43.288V42.6862C150.963 42.7196 150.901 42.7503 150.805 42.7781C150.712 42.8041 150.603 42.8274 150.479 42.8478C150.358 42.8664 150.239 42.8831 150.122 42.8979C150.008 42.9109 149.915 42.9221 149.844 42.9314C149.672 42.9537 149.511 42.9899 149.361 43.0401C149.213 43.0884 149.093 43.1617 149.001 43.2602C148.911 43.3568 148.866 43.4887 148.866 43.6558C148.866 43.8843 148.951 44.0571 149.122 44.1741C149.294 44.2893 149.512 44.3469 149.777 44.3469Z" fill="white"/>
<path d="M155.924 41.5159L155.328 41.6831C155.29 41.5846 155.235 41.489 155.162 41.3961C155.091 41.3013 154.993 41.2233 154.869 41.162C154.746 41.1007 154.587 41.0701 154.394 41.0701C154.13 41.0701 153.91 41.1304 153.734 41.2512C153.56 41.3701 153.472 41.5215 153.472 41.7054C153.472 41.8688 153.532 41.9979 153.652 42.0927C153.772 42.1874 153.96 42.2664 154.214 42.3295L154.855 42.4856C155.241 42.5784 155.529 42.7205 155.718 42.9119C155.908 43.1014 156.002 43.3456 156.002 43.6447C156.002 43.8899 155.931 44.1091 155.789 44.3023C155.648 44.4955 155.451 44.6478 155.198 44.7593C154.945 44.8707 154.651 44.9265 154.316 44.9265C153.875 44.9265 153.511 44.8317 153.222 44.6422C152.934 44.4528 152.751 44.176 152.674 43.8119L153.304 43.6558C153.364 43.8862 153.477 44.059 153.644 44.1741C153.812 44.2893 154.033 44.3469 154.304 44.3469C154.614 44.3469 154.859 44.2819 155.041 44.1518C155.225 44.0199 155.316 43.862 155.316 43.6781C155.316 43.5295 155.264 43.4051 155.159 43.3048C155.054 43.2026 154.893 43.1264 154.675 43.0763L153.956 42.9091C153.56 42.8162 153.27 42.6722 153.084 42.4772C152.901 42.2803 152.809 42.0342 152.809 41.7388C152.809 41.4973 152.877 41.2837 153.014 41.0979C153.153 40.9122 153.341 40.7663 153.579 40.6605C153.819 40.5546 154.091 40.5016 154.394 40.5016C154.822 40.5016 155.157 40.5945 155.401 40.7803C155.646 40.966 155.82 41.2112 155.924 41.5159Z" fill="white"/>
<path d="M161.094 44.8373H159.317V39.1307H161.172C161.731 39.1307 162.209 39.245 162.606 39.4735C163.003 39.7001 163.308 40.0261 163.52 40.4515C163.731 40.875 163.837 41.3821 163.837 41.9729C163.837 42.5673 163.73 43.0791 163.517 43.5082C163.303 43.9354 162.992 44.2642 162.583 44.4946C162.175 44.723 161.678 44.8373 161.094 44.8373ZM160.014 44.2243H161.049C161.525 44.2243 161.919 44.1333 162.232 43.9512C162.545 43.7692 162.778 43.51 162.932 43.1738C163.086 42.8376 163.162 42.4373 163.162 41.9729C163.162 41.5122 163.087 41.1156 162.935 40.7831C162.783 40.4487 162.556 40.1923 162.255 40.014C161.953 39.8338 161.577 39.7437 161.127 39.7437H160.014V44.2243Z" fill="white"/>
<path d="M164.917 44.8373V40.5574H165.58V44.8373H164.917ZM165.254 39.844C165.125 39.844 165.013 39.8004 164.919 39.7131C164.828 39.6258 164.782 39.5208 164.782 39.3982C164.782 39.2756 164.828 39.1707 164.919 39.0834C165.013 38.996 165.125 38.9524 165.254 38.9524C165.383 38.9524 165.494 38.996 165.586 39.0834C165.679 39.1707 165.726 39.2756 165.726 39.3982C165.726 39.5208 165.679 39.6258 165.586 39.7131C165.494 39.8004 165.383 39.844 165.254 39.844Z" fill="white"/>
<path d="M168.538 46.5314C168.217 46.5314 167.942 46.4906 167.711 46.4088C167.481 46.3289 167.289 46.2231 167.135 46.0912C166.983 45.9611 166.862 45.8218 166.772 45.6732L167.301 45.3054C167.361 45.3834 167.437 45.4726 167.529 45.5729C167.62 45.6751 167.746 45.7633 167.905 45.8376C168.066 45.9138 168.277 45.9519 168.538 45.9519C168.886 45.9519 169.174 45.8683 169.401 45.7011C169.628 45.5339 169.741 45.272 169.741 44.9153V44.0459H169.685C169.636 44.124 169.567 44.2206 169.477 44.3357C169.389 44.449 169.261 44.5503 169.094 44.6395C168.929 44.7268 168.706 44.7704 168.425 44.7704C168.077 44.7704 167.764 44.6887 167.486 44.5252C167.211 44.3617 166.993 44.124 166.832 43.8119C166.672 43.4998 166.593 43.1209 166.593 42.675C166.593 42.2366 166.67 41.8549 166.826 41.5298C166.981 41.2029 167.198 40.9502 167.475 40.7719C167.753 40.5917 168.073 40.5016 168.437 40.5016C168.718 40.5016 168.941 40.5481 169.106 40.641C169.272 40.732 169.4 40.836 169.488 40.953C169.578 41.0682 169.647 41.1629 169.696 41.2373H169.763V40.5574H170.404V44.9599C170.404 45.3277 170.32 45.6268 170.151 45.8571C169.984 46.0893 169.76 46.2593 169.477 46.367C169.196 46.4766 168.883 46.5314 168.538 46.5314ZM168.515 44.1797C168.781 44.1797 169.006 44.1193 169.19 43.9986C169.374 43.8778 169.513 43.7041 169.609 43.4775C169.704 43.2509 169.752 42.9797 169.752 42.6639C169.752 42.3555 169.705 42.0834 169.612 41.8475C169.518 41.6116 169.379 41.4267 169.196 41.293C169.012 41.1592 168.785 41.0924 168.515 41.0924C168.234 41.0924 168 41.1629 167.813 41.3041C167.627 41.4453 167.487 41.6348 167.394 41.8726C167.302 42.1103 167.256 42.3741 167.256 42.6639C167.256 42.9611 167.303 43.224 167.397 43.4524C167.492 43.6791 167.633 43.8574 167.818 43.9874C168.006 44.1156 168.238 44.1797 168.515 44.1797Z" fill="white"/>
<path d="M171.619 44.8373V40.5574H172.282V44.8373H171.619ZM171.956 39.844C171.827 39.844 171.715 39.8004 171.621 39.7131C171.53 39.6258 171.484 39.5208 171.484 39.3982C171.484 39.2756 171.53 39.1707 171.621 39.0834C171.715 38.996 171.827 38.9524 171.956 38.9524C172.085 38.9524 172.196 38.996 172.288 39.0834C172.381 39.1707 172.428 39.2756 172.428 39.3982C172.428 39.5208 172.381 39.6258 172.288 39.7131C172.196 39.8004 172.085 39.844 171.956 39.844Z" fill="white"/>
<path d="M175.375 40.5574V41.1146H173.137V40.5574H175.375ZM173.789 39.532H174.453V43.6113C174.453 43.797 174.48 43.9363 174.534 44.0292C174.591 44.1203 174.662 44.1816 174.748 44.2131C174.836 44.2429 174.929 44.2577 175.026 44.2577C175.099 44.2577 175.159 44.254 175.206 44.2466C175.253 44.2373 175.29 44.2299 175.319 44.2243L175.453 44.815C175.409 44.8317 175.346 44.8484 175.265 44.8652C175.185 44.8837 175.082 44.893 174.959 44.893C174.771 44.893 174.588 44.8531 174.408 44.7732C174.23 44.6933 174.082 44.5717 173.964 44.4082C173.847 44.2447 173.789 44.0385 173.789 43.7896V39.532Z" fill="white"/>
<path d="M177.643 44.9376C177.37 44.9376 177.121 44.8865 176.898 44.7843C176.675 44.6803 176.498 44.5308 176.367 44.3357C176.236 44.1388 176.17 43.9011 176.17 43.6224C176.17 43.3772 176.219 43.1784 176.316 43.0261C176.414 42.8719 176.544 42.7512 176.707 42.6639C176.87 42.5766 177.05 42.5116 177.247 42.4688C177.446 42.4243 177.645 42.389 177.846 42.363C178.108 42.3295 178.321 42.3044 178.484 42.2877C178.649 42.2691 178.769 42.2385 178.844 42.1958C178.92 42.153 178.959 42.0787 178.959 41.9729V41.9506C178.959 41.6756 178.883 41.462 178.731 41.3097C178.581 41.1574 178.353 41.0812 178.048 41.0812C177.731 41.0812 177.483 41.1499 177.303 41.2874C177.123 41.4249 176.997 41.5716 176.924 41.7277L176.294 41.5047C176.406 41.2447 176.556 41.0422 176.744 40.8973C176.933 40.7506 177.139 40.6484 177.362 40.5908C177.587 40.5314 177.808 40.5016 178.026 40.5016C178.164 40.5016 178.323 40.5184 178.503 40.5518C178.685 40.5834 178.86 40.6493 179.029 40.7496C179.2 40.8499 179.341 41.0013 179.454 41.2038C179.566 41.4063 179.622 41.6775 179.622 42.0174V44.8373H178.959V44.2577H178.925C178.88 44.3506 178.805 44.45 178.7 44.5559C178.595 44.6617 178.456 44.7518 178.281 44.8261C178.107 44.9004 177.894 44.9376 177.643 44.9376ZM177.744 44.3469C178.007 44.3469 178.228 44.2958 178.408 44.1936C178.59 44.0915 178.726 43.9596 178.818 43.798C178.912 43.6363 178.959 43.4664 178.959 43.288V42.6862C178.931 42.7196 178.869 42.7503 178.773 42.7781C178.68 42.8041 178.571 42.8274 178.447 42.8478C178.325 42.8664 178.206 42.8831 178.09 42.8979C177.976 42.9109 177.883 42.9221 177.812 42.9314C177.639 42.9537 177.478 42.9899 177.328 43.0401C177.18 43.0884 177.06 43.1617 176.969 43.2602C176.879 43.3568 176.834 43.4887 176.834 43.6558C176.834 43.8843 176.919 44.0571 177.089 44.1741C177.262 44.2893 177.48 44.3469 177.744 44.3469Z" fill="white"/>
<path d="M180.833 44.8373V40.5574H181.496V44.8373H180.833ZM181.17 39.844C181.041 39.844 180.929 39.8004 180.836 39.7131C180.744 39.6258 180.698 39.5208 180.698 39.3982C180.698 39.2756 180.744 39.1707 180.836 39.0834C180.929 38.996 181.041 38.9524 181.17 38.9524C181.3 38.9524 181.41 38.996 181.502 39.0834C181.596 39.1707 181.643 39.2756 181.643 39.3982C181.643 39.5208 181.596 39.6258 181.502 39.7131C181.41 39.8004 181.3 39.844 181.17 39.844Z" fill="white"/>
<path d="M185.77 41.5159L185.174 41.6831C185.136 41.5846 185.081 41.489 185.008 41.3961C184.937 41.3013 184.839 41.2233 184.716 41.162C184.592 41.1007 184.434 41.0701 184.241 41.0701C183.976 41.0701 183.756 41.1304 183.58 41.2512C183.406 41.3701 183.319 41.5215 183.319 41.7054C183.319 41.8688 183.379 41.9979 183.498 42.0927C183.618 42.1874 183.806 42.2664 184.061 42.3295L184.702 42.4856C185.088 42.5784 185.375 42.7205 185.565 42.9119C185.754 43.1014 185.848 43.3456 185.848 43.6447C185.848 43.8899 185.777 44.1091 185.635 44.3023C185.494 44.4955 185.298 44.6478 185.045 44.7593C184.792 44.8707 184.497 44.9265 184.162 44.9265C183.721 44.9265 183.357 44.8317 183.068 44.6422C182.78 44.4528 182.597 44.176 182.52 43.8119L183.15 43.6558C183.21 43.8862 183.323 44.059 183.49 44.1741C183.659 44.2893 183.879 44.3469 184.151 44.3469C184.46 44.3469 184.705 44.2819 184.887 44.1518C185.071 44.0199 185.163 43.862 185.163 43.6781C185.163 43.5295 185.11 43.4051 185.005 43.3048C184.9 43.2026 184.739 43.1264 184.522 43.0763L183.802 42.9091C183.407 42.8162 183.116 42.6722 182.931 42.4772C182.747 42.2803 182.655 42.0342 182.655 41.7388C182.655 41.4973 182.724 41.2837 182.86 41.0979C182.999 40.9122 183.187 40.7663 183.425 40.6605C183.665 40.5546 183.937 40.5016 184.241 40.5016C184.668 40.5016 185.003 40.5945 185.247 40.7803C185.492 40.966 185.667 41.2112 185.77 41.5159Z" fill="white"/>
<defs>
<linearGradient id="paint0_linear_5_158" x1="76.0075" y1="48.3358" x2="81.6896" y2="-4.53222" gradientUnits="userSpaceOnUse">
<stop stop-color="#00E2FF"/>
<stop offset="1" stop-color="#8EF2FF"/>
</linearGradient>
<linearGradient id="paint1_linear_5_158" x1="105" y1="51" x2="103.608" y2="1.66735" gradientUnits="userSpaceOnUse">
<stop stop-color="#B200FF"/>
<stop offset="1" stop-color="#FF00F7"/>
</linearGradient>
<linearGradient id="paint2_linear_5_158" x1="138.761" y1="46.5049" x2="127.84" y2="-15.1474" gradientUnits="userSpaceOnUse">
<stop stop-color="#B200FF"/>
<stop offset="1" stop-color="#FF00F7"/>
</linearGradient>
<linearGradient id="paint3_linear_5_158" x1="209.559" y1="44.7615" x2="196.239" y2="-28.4257" gradientUnits="userSpaceOnUse">
<stop stop-color="#B200FF"/>
<stop offset="1" stop-color="#FF00F7"/>
</linearGradient>
<linearGradient id="paint4_linear_5_158" x1="53.0587" y1="43.3955" x2="55.6891" y2="-6.91952" gradientUnits="userSpaceOnUse">
<stop stop-color="#B200FF"/>
<stop offset="1" stop-color="#FF00F7"/>
</linearGradient>
<linearGradient id="paint5_linear_5_158" x1="210.191" y1="1.80217" x2="59.0516" y2="80.0961" gradientUnits="userSpaceOnUse">
<stop stop-color="#B200FF"/>
<stop offset="0.8044" stop-color="#FF00F7"/>
<stop offset="1" stop-color="#B200FF"/>
</linearGradient>
<linearGradient id="paint6_linear_5_158" x1="69.984" y1="47.2196" x2="69.8866" y2="5.43751" gradientUnits="userSpaceOnUse">
<stop stop-color="#B200FF"/>
<stop offset="1" stop-color="#FF00F7"/>
</linearGradient>
<linearGradient id="paint7_linear_5_158" x1="208.865" y1="32.6408" x2="45.4111" y2="-44.0465" gradientUnits="userSpaceOnUse">
<stop offset="0.589868" stop-color="#FF00F7"/>
</linearGradient>
<linearGradient id="paint8_linear_5_158" x1="201.292" y1="6.8362" x2="138.868" y2="6.8362" gradientUnits="userSpaceOnUse">
<stop stop-color="#B200FF"/>
<stop offset="1" stop-color="#FF00F7"/>
</linearGradient>
<linearGradient id="paint9_linear_5_158" x1="76.0075" y1="48.3358" x2="81.6896" y2="-4.53222" gradientUnits="userSpaceOnUse">
<stop stop-color="#00E2FF"/>
<stop offset="1" stop-color="#8EF2FF"/>
</linearGradient>
<linearGradient id="paint10_linear_5_158" x1="76.0075" y1="48.3358" x2="81.6896" y2="-4.53222" gradientUnits="userSpaceOnUse">
<stop stop-color="#00E2FF"/>
<stop offset="1" stop-color="#8EF2FF"/>
</linearGradient>
<linearGradient id="paint11_linear_5_158" x1="76.0075" y1="48.3358" x2="81.6896" y2="-4.53222" gradientUnits="userSpaceOnUse">
<stop stop-color="#00E2FF"/>
<stop offset="1" stop-color="#8EF2FF"/>
</linearGradient>
<linearGradient id="paint12_linear_5_158" x1="76.0075" y1="48.3358" x2="81.6896" y2="-4.53222" gradientUnits="userSpaceOnUse">
<stop stop-color="#00E2FF"/>
<stop offset="1" stop-color="#8EF2FF"/>
</linearGradient>
<linearGradient id="paint13_linear_5_158" x1="76.0075" y1="48.3358" x2="81.6896" y2="-4.53222" gradientUnits="userSpaceOnUse">
<stop stop-color="#00E2FF"/>
<stop offset="1" stop-color="#8EF2FF"/>
</linearGradient>
<linearGradient id="paint14_linear_5_158" x1="76.0075" y1="48.3358" x2="81.6896" y2="-4.53222" gradientUnits="userSpaceOnUse">
<stop stop-color="#00E2FF"/>
<stop offset="1" stop-color="#8EF2FF"/>
</linearGradient>
<linearGradient id="paint15_linear_5_158" x1="76.0075" y1="48.3358" x2="81.6896" y2="-4.53222" gradientUnits="userSpaceOnUse">
<stop stop-color="#00E2FF"/>
<stop offset="1" stop-color="#8EF2FF"/>
</linearGradient>
<linearGradient id="paint16_linear_5_158" x1="76.0075" y1="48.3358" x2="81.6896" y2="-4.53222" gradientUnits="userSpaceOnUse">
<stop stop-color="#00E2FF"/>
<stop offset="1" stop-color="#8EF2FF"/>
</linearGradient>
</defs>
</svg>
